<svg xmlns="http://www.w3.org/2000/svg" xmlns:xlink="http://www.w3.org/1999/xlink" width="698px" height="698px" viewBox="0 0 697.576929101428 697.5769291014282">
    <g id="940db91d-089b-4e5e-8787-b5407b27268d"><path style="fill: rgb(251,251,251); fill-opacity: 1.00;  stroke: rgb(0,0,0); stroke-opacity: 1.00;  stroke-linecap: round; stroke-linejoin: miter; stroke-miterlimit: 4; stroke-width: 0;  stroke-dashoffset: 0;  fill-rule: nonzero;" d="M 194.79494246874205 162.91472124653293 C 170.31233233879516 162.91472124653293 147.1576783907459 174.04582835946357 131.8667394488341 193.16611562324977 C 116.57580050692232 212.28640288703596 110.80736187117554 237.3216712243052 116.18965447090318 261.20532934331817 L 130.75647837476097 325.8448924204375 C 134.59911998015568 342.8964251412315 132.7236665839186 360.73864876223263 125.41950100029491 376.6185047994524 L 110.949050410269 408.0784531717223 C 99.20219500106117 433.61708186963733 101.79333681234075 463.45746341967197 117.7663949420846 486.589077755006 C 133.73945307182845 509.72069209033987 160.72677811333534 522.7147935999426 188.77057232795786 520.7768117056236 L 245.45538800918268 516.8595761977497 C 265.2556489229422 515.4912682270098 285.19612290424703 519.129560904704 301.6897200619628 528.4398767810283 L 364.8565669216598 568.6933068565976 C 384.9314521003556 584.3289526297297 411.21231520249125 589.5634332475613 435.74600216954104 582.8126823646232 C 460.27968913659095 576.0619314816851 480.18307367311854 558.1192773657866 489.4329638127906 534.4145528138184 L 518.3727694311214 475.3956490936853 C 522.0340272865352 466.01293128127725 527.4219036990675 457.39979173172856 534.2571976814961 450.0025653052304 L 585.8092297811912 394.212418580326 C 601.2341684791778 377.51938906949863 608.8916775961899 355.08825121946995 606.8943964727093 332.4476497212812 C 604.8971153492288 309.80704822309247 593.4308256618264 289.062950461833 575.3216453733999 275.32819318813995 L 537.9990100931161 247.02115067021458 C 522.2808701238921 235.0998580532763 511.6660627743248 217.66346228127216 508.2939760448792 198.22622552190015 L 502.3813642971194 164.14500412153944 C 498.2014317342504 140.05121728229898 482.95982433408403 119.31418934528247 461.2124033111752 108.13241491824118 C 439.46498228826647 96.95064049119992 413.73132078863205 96.61959725590184 391.703454649213 107.23823717957976 L 292.78677554810895 154.9215030562046 C 281.87299015015185 160.18254634617696 269.91329371348434 162.91472124653293 257.797630784382 162.91472124653293 L 194.79494246874205 162.91472124653293 Z"></path></g><g id="74e184d9-9eee-48ae-9963-1ab52a3a5170"><path style="fill: none;  stroke: rgb(0,0,0); stroke-opacity: 1.00;  stroke-linecap: round; stroke-linejoin: miter; stroke-miterlimit: 4; stroke-width: 5;  stroke-dashoffset: 0;  fill-rule: nonzero;" d="M 409.12476131403764 125.8496088085069"></path></g>
  </svg>
