<svg xmlns="http://www.w3.org/2000/svg" xmlns:xlink="http://www.w3.org/1999/xlink" width="698px" height="698px" viewBox="0 0 697.576929101428 697.5769291014282">
    
        <g id="88ad41ed-3e9f-47b6-9002-d46c7557de60" name="New Group">
          
        <g id="9b0b8c60-3eb1-4ed8-b11b-d195c4a427f4" name="New Group">
          <g id="d91531d9-65e1-4c5e-a7e0-aa1fdbdfcca4"><path style="fill: rgb(255,255,255); fill-opacity: 1.00;  stroke: none;  stroke-linecap: butt; stroke-linejoin: miter; stroke-miterlimit: 10; stroke-width: 0;  stroke-dashoffset: 0;  fill-rule: nonzero;" d="M 249.666479948477 373.66969965199365 L 249.666479948477 275.53930279863744 L 307.51176651466585 275.53930279863744 L 307.51176651466585 373.66969965199365 L 249.666479948477 373.66969965199365 Z"></path></g>
<g id="f01fe61b-9fb6-45f6-9c3f-b42ef8d23315">
<g style="">
		<g id="f01fe61b-9fb6-45f6-9c3f-b42ef8d23315-child-0">
<path style="stroke: rgb(193,193,193); stroke-opacity: 1.00; stroke-width: 0; stroke-dasharray: none; stroke-linecap: butt; stroke-dashoffset: 0; stroke-linejoin: miter; stroke-miterlimit: 4; fill: rgb(0,0,0); fill-opacity: 1.00; fill-rule: nonzero; opacity: 1;" transform="matrix(1.321344 0 0 1.315243 274.842014 347.918245) matrix(1 0 0 1 0 0)  translate(-172.310231, -393.361546)" d="M 181.13 456.56 C 173.75 458.12 170.95 458.17 163.18 456.88 C 145.98 454.02 138.71 444.96 136.03 423.03 C 134.70 412.05 134.70 372.85 136.04 362.15 C 138.00 346.52 143.75 336.73 153.83 331.83 C 160.18 328.75 181.14 327.89 188.68 330.39 C 198.86 333.78 204.57 341.37 207.76 355.77 C 210.00 365.86 210.25 414.27 208.12 426.00 C 204.58 445.57 198.04 452.98 181.13 456.56 z M 174.46 384.94 C 179.39 386.37 181.51 386.13 185.01 383.75 C 190.98 379.69 192.45 376.71 192.85 367.89 C 193.40 355.89 192.41 351.21 188.51 347.31 C 185.54 344.34 184.62 344.00 179.50 344.00 C 167.61 344.00 164.68 348.50 165.17 366.01 C 165.49 377.60 165.57 377.95 168.46 380.96 C 170.09 382.66 172.79 384.45 174.46 384.94 z" stroke-linecap="round"></path>
</g>
</g>
</g>

        </g>
      

        <g id="6b7d7a8c-56f3-4f32-b7cc-b8aac47e70d1" name="New Group">
          <g id="927964c3-edbe-4b91-bb96-eaaf2e6f1bb3"><path style="fill: rgb(255,255,255); fill-opacity: 1.00;  stroke: none;  stroke-linecap: butt; stroke-linejoin: miter; stroke-miterlimit: 10; stroke-width: 0;  stroke-dashoffset: 0;  fill-rule: nonzero;" d="M 400.91356181473384 373.66969971356554 L 400.91356181473384 275.5393028602093 L 458.7588483809227 275.5393028602093 L 458.7588483809227 373.66969971356554 L 400.91356181473384 373.66969971356554 Z"></path></g>
<g id="b1e2badb-817e-4476-b993-012604545446">
<g style="">
		<g id="b1e2badb-817e-4476-b993-012604545446-child-0">
<path style="stroke: rgb(193,193,193); stroke-opacity: 1.00; stroke-width: 0; stroke-dasharray: none; stroke-linecap: butt; stroke-dashoffset: 0; stroke-linejoin: miter; stroke-miterlimit: 4; fill: rgb(0,0,0); fill-opacity: 1.00; fill-rule: nonzero; opacity: 1;" transform="matrix(1.321344 0 0 1.315243 426.089096 347.918245) matrix(1 0 0 1 0 0)  translate(-172.310231, -393.361546)" d="M 181.13 456.56 C 173.75 458.12 170.95 458.17 163.18 456.88 C 145.98 454.02 138.71 444.96 136.03 423.03 C 134.70 412.05 134.70 372.85 136.04 362.15 C 138.00 346.52 143.75 336.73 153.83 331.83 C 160.18 328.75 181.14 327.89 188.68 330.39 C 198.86 333.78 204.57 341.37 207.76 355.77 C 210.00 365.86 210.25 414.27 208.12 426.00 C 204.58 445.57 198.04 452.98 181.13 456.56 z M 174.46 384.94 C 179.39 386.37 181.51 386.13 185.01 383.75 C 190.98 379.69 192.45 376.71 192.85 367.89 C 193.40 355.89 192.41 351.21 188.51 347.31 C 185.54 344.34 184.62 344.00 179.50 344.00 C 167.61 344.00 164.68 348.50 165.17 366.01 C 165.49 377.60 165.57 377.95 168.46 380.96 C 170.09 382.66 172.79 384.45 174.46 384.94 z" stroke-linecap="round"></path>
</g>
</g>
</g>

        </g>
      
        </g>
      <g id="74e184d9-9eee-48ae-9963-1ab52a3a5170"><path style="fill: none;  stroke: rgb(0,0,0); stroke-opacity: 1.00;  stroke-linecap: round; stroke-linejoin: miter; stroke-miterlimit: 4; stroke-width: 5;  stroke-dashoffset: 0;  fill-rule: nonzero;" d="M 409.12476131403764 125.8496088085069"></path></g>
  </svg>
